<svg width="50" height="50" viewBox="0 0 50 50" fill="none" xmlns="http://www.w3.org/2000/svg">
<circle cx="25" cy="25" r="25" fill="black"/>
<path opacity="0.4" d="M23.275 28.6611H17.357C16.608 28.6611 16 29.2585 16 29.9943C16 30.7292 16.608 31.3275 17.357 31.3275H23.275C24.024 31.3275 24.632 30.7292 24.632 29.9943C24.632 29.2585 24.024 28.6611 23.275 28.6611Z" fill="white"/>
<path opacity="0.4" d="M34.0002 20.0412C34.0002 19.3063 33.3921 18.709 32.6441 18.709H26.7262C25.9772 18.709 25.3691 19.3063 25.3691 20.0412C25.3691 20.7771 25.9772 21.3744 26.7262 21.3744H32.6441C33.3921 21.3744 34.0002 20.7771 34.0002 20.0412Z" fill="white"/>
<path d="M22.19 20.0407C22.19 21.7207 20.805 23.0824 19.095 23.0824C17.386 23.0824 16 21.7207 16 20.0407C16 18.3617 17.386 17 19.095 17C20.805 17 22.19 18.3617 22.19 20.0407Z" fill="white"/>
<path d="M34.0001 29.9596C34.0001 31.6387 32.6151 33.0004 30.9051 33.0004C29.1961 33.0004 27.8101 31.6387 27.8101 29.9596C27.8101 28.2796 29.1961 26.918 30.9051 26.918C32.6151 26.918 34.0001 28.2796 34.0001 29.9596Z" fill="white"/>
</svg>
